<?xml version="1.0" encoding="UTF-8"?>
<!DOCTYPE svg PUBLIC "-//W3C//DTD SVG 1.1//EN" "http://www.w3.org/Graphics/SVG/1.1/DTD/svg11.dtd">
<!-- Creator: CorelDRAW X7 -->
<svg xmlns="http://www.w3.org/2000/svg" xml:space="preserve" width="2613px" height="1644px" version="1.1" style="shape-rendering:geometricPrecision; text-rendering:geometricPrecision; image-rendering:optimizeQuality; fill-rule:evenodd; clip-rule:evenodd"
viewBox="0 0 2613 1644"
 xmlns:xlink="http://www.w3.org/1999/xlink">
 <defs>
  <style type="text/css">
   <![CDATA[
    .fil0 {fill:white}
   ]]>
  </style>
 </defs>
 <g id="Layer_x0020_1">
  <metadata id="CorelCorpID_0Corel-Layer"/>
  <g id="_323812792">
   <path class="fil0" d="M673 800c0,56 5,100 17,152 3,11 5,20 8,31 3,9 7,20 10,30 10,29 32,79 49,107 22,36 26,41 47,70 17,22 36,44 56,63 7,7 13,11 20,18 6,7 14,12 21,19 22,19 69,51 93,64l52 27c27,13 57,22 86,31 5,2 9,3 14,5 6,1 11,2 17,4 108,27 226,22 333,-7 9,-3 20,-7 30,-10 21,-7 37,-14 56,-22 44,-17 108,-59 144,-89 14,-11 28,-23 41,-36 18,-18 40,-40 55,-61 35,-46 65,-91 87,-146 4,-10 8,-17 11,-28 15,-46 25,-71 32,-124 13,-96 6,-184 -21,-276 -10,-33 -21,-54 -34,-85 -4,-9 -9,-16 -13,-25 -12,-22 -32,-53 -46,-73 -11,-15 -22,-28 -34,-43 -4,-4 -6,-5 -9,-10 -7,-9 -40,-39 -50,-49l-44 -35c-31,-21 -35,-24 -71,-45 -14,-8 -53,-27 -67,-32 -5,-2 -8,-3 -14,-5 -107,-44 -229,-53 -343,-34 -40,6 -88,19 -125,34 -39,15 -82,36 -117,59l-24 16c-4,4 -7,6 -12,9l-44 35 -49 49c-21,22 -60,76 -76,103 -15,26 -21,38 -33,65l-27 73c-15,44 -26,119 -26,171zm920 -225c-2,-1 -4,-1 -7,-1l-140 0 -14 -6c-39,-18 -82,-27 -125,-27 -44,0 -86,9 -126,27l-14 6 -140 0c-3,0 -5,0 -7,1 138,19 245,137 245,281 0,40 -8,78 -23,112l0 0c40,-21 88,-21 129,0l0 0c-15,-34 -23,-72 -23,-112 0,-144 107,-262 245,-281zm39 33c-137,0 -248,111 -248,248 0,136 111,247 248,247 136,0 248,-111 248,-247 0,-137 -112,-248 -248,-248zm0 417c-93,0 -169,-76 -169,-169 0,-94 76,-169 169,-169 93,0 169,76 169,169 0,93 -76,169 -169,169zm-651 -417c-136,0 -248,111 -248,248 0,136 112,247 248,247 137,0 248,-111 248,-247 0,-137 -111,-248 -248,-248zm0 417c-93,0 -169,-76 -169,-169 0,-94 76,-169 169,-169 93,0 169,76 169,169 0,93 -76,169 -169,169zm-108 -161c-9,0 -16,-8 -16,-17 0,-65 52,-117 117,-117 9,0 17,7 17,16 0,9 -8,17 -17,17 -47,0 -85,37 -85,84 0,9 -7,17 -16,17zm871 0c-9,0 -17,-8 -17,-17 0,-47 -38,-85 -84,-85 -10,0 -17,-7 -17,-16 0,-9 7,-17 17,-17 65,0 117,53 117,118 0,9 -7,17 -16,17z"/>
   <path class="fil0" d="M601 1184l0 0zm697 -1184l37 0c19,0 38,1 48,2l40 4c70,8 142,29 205,54 10,5 21,9 31,13l29 15c28,13 56,30 82,47 17,11 34,23 51,36 22,19 67,54 85,76l1 2c2,2 3,3 5,5 18,19 34,38 51,58 27,33 40,58 61,91 15,22 26,47 37,71 8,18 39,94 40,111l3 0c8,-32 49,-95 73,-122 7,-8 25,-30 33,-32 0,11 1,22 3,32 2,26 0,45 0,67 -1,13 -1,23 -2,34 -1,37 -16,114 -27,147 -1,3 -2,3 -3,6 -1,3 -1,5 -2,7 -6,19 -17,41 -28,58 -5,7 -9,14 -14,21 -9,11 -6,12 -6,29 0,23 -5,48 -5,65 6,-4 10,-10 16,-14 16,-13 31,-27 49,-39 16,-11 59,-38 76,-40 -2,4 -3,11 -4,15 -14,55 -42,119 -71,167 -17,29 -37,62 -60,86l-38 36c-10,9 -35,22 -40,33 -3,8 -9,15 -11,24 4,-1 7,-4 11,-7 17,-14 52,-34 71,-43 22,-9 78,-31 101,-31 -2,10 -33,63 -42,74 -3,5 -5,8 -9,13l-83 99c-4,4 -7,6 -12,11 -45,45 -95,76 -162,89 -15,3 -31,2 -37,8 -4,4 -7,8 -11,12l-37 31c15,0 31,-4 57,-4 20,0 40,0 56,4 -2,4 -14,11 -18,14l-59 35c-14,8 -27,14 -42,21 -31,13 -63,25 -96,30l-44 4c-4,-1 -7,-2 -13,-1 -12,0 -71,32 -91,33l0 3c9,1 29,8 38,12 6,2 29,12 32,16 -10,5 -67,15 -83,15 -10,0 -14,1 -24,1 -22,0 -49,1 -69,-2 -46,-8 -20,-12 -61,-6 -39,5 -72,7 -113,7 -28,0 -83,-7 -112,-11 -9,-1 -12,-3 -19,0 -62,21 -131,13 -195,1 -11,-3 -14,-2 -17,-6 6,-2 14,-7 20,-10l63 -21c-13,-3 -56,-22 -70,-28 -12,-5 -9,-7 -25,-5 -45,7 -99,-6 -136,-21 -8,-3 -15,-6 -23,-9 -25,-10 -111,-56 -122,-72 29,-7 73,-6 106,-1 11,2 22,5 32,6 -4,-5 -9,-8 -14,-12 -4,-4 -8,-7 -12,-11l-25 -22c-6,-6 -7,-6 -18,-7 -32,-2 -67,-12 -95,-24 -6,-2 -10,-4 -16,-7 -23,-11 -51,-31 -71,-47 -13,-11 -63,-60 -72,-71 -24,-30 -35,-40 -61,-81 -6,-10 -32,-50 -34,-60 9,0 24,4 33,7 42,10 75,25 112,45 15,8 34,22 47,32 5,3 18,15 22,16 -5,-9 -9,-17 -14,-27 -4,-8 -5,-15 -12,-19 -2,-1 -4,-1 -6,-3 -8,-4 -17,-9 -25,-14 -20,-13 -37,-30 -54,-46l-18 -21c-3,-4 -6,-7 -9,-11 -3,-4 -5,-8 -8,-12l-24 -35c-5,-7 -10,-16 -15,-24 -29,-48 -49,-100 -66,-153 -1,-4 -2,-11 -4,-15 26,3 106,55 129,76 9,8 28,28 35,33 0,-4 -2,-12 -2,-17 -9,-61 7,-43 -19,-74 -60,-70 -75,-161 -86,-250 -4,-25 -5,-62 -3,-88 1,-6 0,-13 0,-19 0,-11 3,-23 3,-34 13,7 20,19 30,29 3,3 5,6 9,10 24,28 42,60 59,93l16 41c1,3 2,5 3,7 1,3 1,2 1,3 2,2 1,2 2,3 2,-19 24,-80 31,-101 16,-40 36,-80 57,-117l53 -78c3,-5 6,-8 9,-13l84 -89c3,-4 7,-8 11,-11l35 -29c26,-23 74,-54 104,-71l101 -49c43,-17 89,-30 134,-41 12,-3 24,-5 37,-7 39,-6 76,-11 118,-11l1 0zm745 1165l0 0zm-705 348c-109,0 -162,-6 -266,-40 -61,-20 -147,-64 -198,-106l-37 -30c-10,-8 -18,-18 -28,-26 -23,-19 -78,-87 -94,-111 -15,-22 -28,-45 -41,-69 -2,-5 -5,-8 -8,-14 -22,-46 -40,-94 -52,-144 -3,-11 -5,-22 -8,-35 -15,-73 -15,-148 -6,-223 6,-54 23,-123 46,-173 2,-6 4,-11 6,-16 29,-64 65,-122 111,-175l20 -23c16,-21 38,-36 56,-54 22,-22 50,-40 76,-57l41 -25c10,-6 18,-10 28,-15 6,-3 10,-5 15,-7l112 -43c22,-6 47,-13 70,-17 13,-2 27,-4 39,-5 93,-14 190,-5 280,17l51 15c84,30 157,71 226,126 32,25 51,48 79,75l20 24c12,16 27,32 37,50 4,6 6,8 9,13 30,46 55,96 73,147 9,26 13,43 20,68 27,101 26,228 1,329 -6,23 -12,45 -19,67 -3,6 -5,11 -7,16 -2,6 -3,11 -6,16l-13 31c-2,4 -4,9 -7,14 -22,48 -52,92 -85,133l-20 24c-4,4 -6,7 -10,12 -16,16 -31,33 -49,47 -16,14 -31,28 -48,40 -3,2 -4,3 -7,5l-65 43 -58 30c-86,40 -187,66 -284,66z"/>
   <path class="fil0" d="M2213 778c22,-10 26,-11 48,-25 38,-23 76,-57 104,-92 29,-36 45,-68 64,-110l29 -68c16,-40 35,-115 42,-156 1,-6 6,-39 7,-43 -7,2 -24,14 -30,18 -10,6 -20,14 -30,21 -19,14 -35,28 -52,45 -10,10 -27,27 -36,38 -4,5 -7,9 -11,14l-41 58c-29,53 -40,75 -61,136 -8,23 -15,50 -21,77 -4,22 -12,66 -12,87z"/>
   <path class="fil0" d="M441 1270c-1,-6 -4,-11 -7,-16 -9,-16 -26,-49 -35,-63 -2,-3 -3,-3 -5,-7 -11,-17 -34,-48 -48,-63l-23 -27c-9,-9 -16,-16 -25,-25l-26 -24c-15,-12 -42,-33 -57,-41l-31 -18c-9,-6 -22,-11 -32,-17 -27,-12 -83,-32 -110,-38 -7,-1 -38,-6 -42,-8 2,10 20,36 26,47 19,31 53,78 78,106l30 33c29,30 84,81 119,102 22,14 27,15 48,26 37,18 98,33 140,33z"/>
   <path class="fil0" d="M400 1058c0,-17 -14,-62 -19,-80 -14,-51 -47,-123 -77,-168 -14,-21 -30,-45 -46,-64l-19 -20c-41,-41 -86,-80 -139,-106 -8,-4 -26,-14 -34,-16 1,10 7,28 10,38 7,27 27,82 39,109 26,59 37,74 70,128 3,5 5,9 9,14 3,6 6,10 10,16 18,27 33,42 57,66 17,17 36,29 55,42l31 19c13,5 41,19 53,22z"/>
   <path class="fil0" d="M400 778c0,-15 -2,-30 -5,-43 -2,-13 -4,-29 -7,-42 -3,-13 -6,-25 -9,-39 -7,-35 -35,-107 -52,-141 -13,-25 -37,-68 -55,-90 -7,-10 -14,-18 -21,-27 -14,-17 -44,-46 -60,-61 -17,-15 -52,-41 -71,-51 0,33 22,127 33,161 6,17 18,54 26,71 5,11 10,22 15,34 4,10 11,21 15,32 10,23 22,43 35,62 6,10 13,19 20,28 12,15 26,31 41,43 3,2 4,4 7,6 14,14 60,44 79,53 3,2 6,2 9,4z"/>
   <path class="fil0" d="M2173 1270c73,0 158,-34 216,-79l39 -34c2,-2 3,-4 6,-6l44 -41c5,-5 7,-9 12,-14 31,-31 85,-103 106,-140 5,-9 15,-24 17,-33l-40 9c-33,8 -79,23 -110,38 -63,31 -79,46 -132,88 -20,16 -64,66 -82,90 -26,32 -38,56 -58,90 -6,10 -11,23 -18,32z"/>
   <path class="fil0" d="M2227 1058l35 -14c11,-5 24,-11 33,-17 5,-3 10,-5 15,-8l15 -10c10,-7 19,-14 28,-22 3,-2 4,-2 7,-5l25 -24c28,-34 22,-24 48,-62l28 -46c6,-11 12,-20 18,-31l32 -66c11,-25 47,-122 49,-149 -21,5 -72,40 -93,53 -10,7 -18,14 -28,22 -19,15 -34,31 -51,47l-16 19c-25,32 -24,30 -47,64 -10,14 -27,47 -35,64l-16 34c-4,11 -9,22 -14,34 -9,24 -22,73 -27,97 -2,9 -1,13 -6,20z"/>
   <path class="fil0" d="M160 1307c5,8 37,33 46,40 23,15 46,34 73,49 52,28 42,24 105,52 4,1 8,3 12,5 5,2 9,3 13,5 66,26 132,32 204,21 17,-3 44,-12 52,-12 -1,-7 -19,-21 -26,-27 -3,-2 -7,-5 -10,-8 -11,-10 -49,-36 -62,-44 -8,-5 -14,-9 -22,-13l-72 -36c-62,-27 -138,-42 -208,-42 -19,0 -35,2 -54,3 -8,0 -18,2 -26,3l-25 4z"/>
   <path class="fil0" d="M1946 1467c56,13 55,17 122,17 75,0 155,-32 218,-63 31,-16 60,-33 89,-52l60 -45c6,-5 14,-11 18,-17 -7,0 -18,-3 -25,-4 -9,-1 -18,-3 -26,-3 -76,-5 -139,-3 -209,20l-52 19c-5,2 -8,3 -12,5 -22,11 -34,15 -60,31 -24,14 -30,17 -54,34l-31 24c-9,7 -33,26 -38,34z"/>
   <path class="fil0" d="M400 1578l70 24c91,27 220,52 315,38 31,-5 55,-12 85,-22 5,-2 34,-12 37,-17 -1,-5 -6,-7 -11,-10 -30,-20 -44,-24 -72,-38 -15,-8 -49,-19 -66,-24 -12,-4 -22,-6 -35,-9 -80,-16 -152,-14 -230,12 -9,3 -16,5 -24,9 -5,2 -7,3 -13,5 -4,2 -8,4 -12,5 -4,3 -7,5 -11,7 -8,4 -28,13 -33,20z"/>
   <path class="fil0" d="M1707 1600l38 18c7,2 12,5 19,7 87,29 176,19 265,5l77 -16c24,-6 86,-25 107,-35 -8,-12 -69,-38 -91,-46 -9,-3 -16,-6 -26,-8 -10,-3 -19,-5 -28,-7 -94,-19 -189,-1 -273,35 -21,8 -40,20 -59,31 -10,6 -21,16 -29,16z"/>
  </g>
 </g>
</svg>
