<?xml version="1.0" encoding="UTF-8" standalone="no"?>
<svg
   xmlns:dc="http://purl.org/dc/elements/1.1/"
   xmlns:cc="http://creativecommons.org/ns#"
   xmlns:rdf="http://www.w3.org/1999/02/22-rdf-syntax-ns#"
   xmlns:svg="http://www.w3.org/2000/svg"
   xmlns="http://www.w3.org/2000/svg"
   xmlns:sodipodi="http://sodipodi.sourceforge.net/DTD/sodipodi-0.dtd"
   xmlns:inkscape="http://www.inkscape.org/namespaces/inkscape"
   inkscape:version="1.0 (4035a4fb49, 2020-05-01)"
   sodipodi:docname="favicon.svg"
   id="svg26"
   viewBox="0 0 6800.0001 468.77899"
   style="clip-rule:evenodd;fill-rule:evenodd;image-rendering:optimizeQuality;shape-rendering:geometricPrecision;text-rendering:geometricPrecision"
   version="1.1"
   height="468.77899"
   width="956"
   xml:space="preserve"><metadata
   id="metadata30"><rdf:RDF><cc:Work
       rdf:about=""><dc:format>image/svg+xml</dc:format><dc:type
         rdf:resource="http://purl.org/dc/dcmitype/StillImage" /><dc:title></dc:title></cc:Work></rdf:RDF></metadata><sodipodi:namedview
   inkscape:current-layer="svg26"
   inkscape:window-maximized="1"
   inkscape:window-y="-8"
   inkscape:window-x="-8"
   inkscape:cy="338.54436"
   inkscape:cx="372.33981"
   inkscape:zoom="0.66998367"
   inkscape:snap-text-baseline="false"
   showgrid="false"
   id="namedview28"
   inkscape:window-height="745"
   inkscape:window-width="1366"
   inkscape:pageshadow="2"
   inkscape:pageopacity="0"
   guidetolerance="10"
   gridtolerance="10"
   objecttolerance="10"
   borderopacity="1"
   bordercolor="#666666"
   pagecolor="#ffffff"
   inkscape:document-rotation="0"
   units="px"
   width="956in" />
 <defs
   id="defs4"><style
   id="style2"
   type="text/css">
   <![CDATA[
    .fil2 {fill:#00AFEF}
    .fil0 {fill:#201E1E}
    .fil3 {fill:black}
    .fil1 {fill:#201E1E;fill-rule:nonzero}
   ]]>
  </style>
  
  
 
   
   
   
  </defs>
 <g
   id="g13"
   transform="matrix(8.0691942,0,0,8.0691942,-1334.0369,-184.38209)">
    
    <g
   id="g11">
     
    </g>
   </g><g
   id="_321428072"
   transform="matrix(69.466921,0,0,69.466921,-381.81444,-3582.4132)"
   style="stroke-width:0;stroke-miterlimit:4;stroke-dasharray:none">
    <path
   style="stroke:#000000;stroke-width:0;stroke-linecap:round;stroke-linejoin:round;stroke-miterlimit:4;stroke-dasharray:none;stroke-opacity:1"
   id="path17"
   d="m 79,34 c 0,0 0,0 0,0 H 67 66 c -4,-2 -7,-3 -11,-3 -4,0 -7,1 -11,3 H 43 31 c 0,0 0,0 0,0 11,2 20,12 20,24 0,3 0,6 -2,9 v 0 c 4,-1 8,-1 11,0 v 0 C 59,64 58,61 58,58 58,46 68,36 79,34 Z m 3,3 c -11,0 -20,9 -20,21 0,11 9,21 20,21 12,0 21,-10 21,-21 0,-12 -9,-21 -21,-21 z m 0,35 c -7,0 -14,-6 -14,-14 0,-8 7,-14 14,-14 8,0 15,6 15,14 0,8 -7,14 -15,14 z M 27,37 C 16,37 6,46 6,58 6,69 16,79 27,79 39,79 48,69 48,58 48,46 39,37 27,37 Z m 0,35 c -7,0 -14,-6 -14,-14 0,-8 7,-14 14,-14 8,0 15,6 15,14 0,8 -7,14 -15,14 z M 18,59 c -1,0 -1,-1 -1,-2 0,-5 4,-10 10,-10 1,0 1,1 1,2 0,0 0,1 -1,1 -4,0 -7,3 -7,7 0,1 -1,2 -2,2 z m 74,0 c -1,0 -1,-1 -1,-2 0,-4 -4,-7 -8,-7 0,0 -1,-1 -1,-1 0,-1 1,-2 1,-2 6,0 10,5 10,10 0,1 0,2 -1,2 z"
   class="fil3" />
    <g
   id="g21"
   style="stroke-width:0;stroke-miterlimit:4;stroke-dasharray:none">
     
    </g>
   </g></svg>
