<?xml version="1.0" encoding="UTF-8" standalone="no"?>
<svg
   xmlns:dc="http://purl.org/dc/elements/1.1/"
   xmlns:cc="http://creativecommons.org/ns#"
   xmlns:rdf="http://www.w3.org/1999/02/22-rdf-syntax-ns#"
   xmlns:svg="http://www.w3.org/2000/svg"
   xmlns="http://www.w3.org/2000/svg"
   xmlns:sodipodi="http://sodipodi.sourceforge.net/DTD/sodipodi-0.dtd"
   xmlns:inkscape="http://www.inkscape.org/namespaces/inkscape"
   xml:space="preserve"
   width="6800"
   height="956"
   version="1.1"
   style="clip-rule:evenodd;fill-rule:evenodd;image-rendering:optimizeQuality;shape-rendering:geometricPrecision;text-rendering:geometricPrecision"
   viewBox="0 0 6800.0001 956"
   id="svg26"
   sodipodi:docname="logo.svg"
   inkscape:version="1.0 (4035a4fb49, 2020-05-01)"><metadata
   id="metadata30"><rdf:RDF><cc:Work
       rdf:about=""><dc:format>image/svg+xml</dc:format><dc:type
         rdf:resource="http://purl.org/dc/dcmitype/StillImage" /><dc:title></dc:title></cc:Work></rdf:RDF></metadata><sodipodi:namedview
   width="6455.799in"
   units="px"
   inkscape:document-rotation="0"
   pagecolor="#ffffff"
   bordercolor="#666666"
   borderopacity="1"
   objecttolerance="10"
   gridtolerance="10"
   guidetolerance="10"
   inkscape:pageopacity="0"
   inkscape:pageshadow="2"
   inkscape:window-width="1366"
   inkscape:window-height="745"
   id="namedview28"
   showgrid="false"
   inkscape:snap-text-baseline="false"
   inkscape:zoom="0.05921875"
   inkscape:cx="2006.8814"
   inkscape:cy="1284.3345"
   inkscape:window-x="284"
   inkscape:window-y="1072"
   inkscape:window-maximized="1"
   inkscape:current-layer="svg26" />
 <defs
   id="defs4"><style
   type="text/css"
   id="style2">
   <![CDATA[
    .fil2 {fill:#00AFEF}
    .fil0 {fill:#201E1E}
    .fil3 {fill:black}
    .fil1 {fill:#201E1E;fill-rule:nonzero}
   ]]>
  </style>
  
  
 
   
   
   
  </defs>
 <g
   transform="matrix(8.0691942,0,0,8.0691942,-1334.0369,-184.38209)"
   id="g13">
    
    <g
   id="g11">
     
    </g>
   </g><circle
   style="stroke-width:8.68326"
   class="fil2"
   cx="484.996"
   cy="476.35419"
   r="477.57874"
   id="circle15" /><g
   style="stroke-width:0;stroke-miterlimit:4;stroke-dasharray:none"
   transform="matrix(8.3153919,0,0,8.3153919,27.772518,19.007646)"
   id="_321428072">
    <path
   class="fil3"
   d="m 79,34 c 0,0 0,0 0,0 H 67 66 c -4,-2 -7,-3 -11,-3 -4,0 -7,1 -11,3 H 43 31 c 0,0 0,0 0,0 11,2 20,12 20,24 0,3 0,6 -2,9 v 0 c 4,-1 8,-1 11,0 v 0 C 59,64 58,61 58,58 58,46 68,36 79,34 Z m 3,3 c -11,0 -20,9 -20,21 0,11 9,21 20,21 12,0 21,-10 21,-21 0,-12 -9,-21 -21,-21 z m 0,35 c -7,0 -14,-6 -14,-14 0,-8 7,-14 14,-14 8,0 15,6 15,14 0,8 -7,14 -15,14 z M 27,37 C 16,37 6,46 6,58 6,69 16,79 27,79 39,79 48,69 48,58 48,46 39,37 27,37 Z m 0,35 c -7,0 -14,-6 -14,-14 0,-8 7,-14 14,-14 8,0 15,6 15,14 0,8 -7,14 -15,14 z M 18,59 c -1,0 -1,-1 -1,-2 0,-5 4,-10 10,-10 1,0 1,1 1,2 0,0 0,1 -1,1 -4,0 -7,3 -7,7 0,1 -1,2 -2,2 z m 74,0 c -1,0 -1,-1 -1,-2 0,-4 -4,-7 -8,-7 0,0 -1,-1 -1,-1 0,-1 1,-2 1,-2 6,0 10,5 10,10 0,1 0,2 -1,2 z"
   id="path17"
   style="stroke:#000000;stroke-width:0;stroke-linecap:round;stroke-linejoin:round;stroke-miterlimit:4;stroke-dasharray:none;stroke-opacity:1" />
    <g
   style="stroke-width:0;stroke-miterlimit:4;stroke-dasharray:none"
   id="g21">
     
    </g>
   </g><text
   id="text857"
   y="814.78497"
   x="737.49353"
   style="font-style:normal;font-variant:normal;font-weight:bold;font-stretch:normal;font-size:850.824px;line-height:1.25;font-family:Poppins;-inkscape-font-specification:'Poppins, Bold';font-variant-ligatures:normal;font-variant-caps:normal;font-variant-numeric:normal;font-variant-east-asian:normal;letter-spacing:-48.4085px;fill:#000000;fill-opacity:1;stroke:none;stroke-width:21.2706"
   xml:space="preserve"><tspan
     style="stroke-width:21.2706"
     y="814.78497"
     x="737.49353"
     id="tspan855"
     sodipodi:role="line"><tspan
   id="tspan856"
   style="letter-spacing:-50.43px">   r</tspan>aveladvisor</tspan></text>
<text
   xml:space="preserve"
   style="font-style:normal;font-variant:normal;font-weight:bold;font-stretch:normal;font-size:850.824px;line-height:1.25;font-family:Poppins;-inkscape-font-specification:'Poppins, Bold';font-variant-ligatures:normal;font-variant-caps:normal;font-variant-numeric:normal;font-variant-east-asian:normal;letter-spacing:-48.4085px;clip-rule:evenodd;fill:#000000;fill-opacity:1;fill-rule:evenodd;stroke:none;stroke-width:21.2706;image-rendering:optimizeQuality;shape-rendering:geometricPrecision;text-rendering:geometricPrecision"
   x="971.49323"
   y="814.78503"
   id="text857-1"><tspan
     sodipodi:role="line"
     id="tspan855-1"
     x="971.49323"
     y="814.78503"
     style="stroke-width:21.2706"><tspan
       style="letter-spacing:-50.43px"
       id="tspan856-4">T</tspan></tspan></text></svg>
